<?xml version="1.0" encoding="UTF-8" standalone="no"?>
<svg
   xmlns:ns0="http://www.iki.fi/pav/software/textext/"
   xmlns:dc="http://purl.org/dc/elements/1.1/"
   xmlns:cc="http://creativecommons.org/ns#"
   xmlns:rdf="http://www.w3.org/1999/02/22-rdf-syntax-ns#"
   xmlns:svg="http://www.w3.org/2000/svg"
   xmlns="http://www.w3.org/2000/svg"
   version="1.1"
   id="svg2"
   viewBox="0 0 102 200.00001"
   height="56.444447mm"
   width="28.786667mm">
  <defs
     id="defs4" />
  <metadata
     id="metadata7">
    <rdf:RDF>
      <cc:Work
         rdf:about="">
        <dc:format>image/svg+xml</dc:format>
        <dc:type
           rdf:resource="http://purl.org/dc/dcmitype/StillImage" />
        <dc:title></dc:title>
      </cc:Work>
    </rdf:RDF>
  </metadata>
  <g
     transform="translate(-99,-402.36221)"
     id="layer1">
    <circle
       style="fill:#ffffff;fill-opacity:1;stroke:#552200;stroke-width:1;stroke-miterlimit:4;stroke-dasharray:none;stroke-opacity:1"
       id="path4172"
       cx="120"
       cy="522.36218"
       r="20" />
    <circle
       style="fill:#ffffff;fill-opacity:1;stroke:#552200;stroke-width:1;stroke-miterlimit:4;stroke-dasharray:none;stroke-opacity:1"
       id="path4172-3"
       cx="119.5"
       cy="472.86221"
       r="20" />
    <circle
       style="fill:#ffffff;fill-opacity:1;stroke:#552200;stroke-width:1;stroke-miterlimit:4;stroke-dasharray:none;stroke-opacity:1"
       id="path4172-6"
       cx="120.5"
       cy="422.86221"
       r="20" />
    <circle
       style="fill:#000000;fill-opacity:1;stroke:#552200;stroke-width:1;stroke-miterlimit:4;stroke-dasharray:none;stroke-opacity:1"
       id="path4223"
       cx="180.5"
       cy="522.86218"
       r="20" />
    <circle
       style="fill:#000000;fill-opacity:1;stroke:#552200;stroke-width:1;stroke-miterlimit:4;stroke-dasharray:none;stroke-opacity:1"
       id="path4223-7"
       cx="180.5"
       cy="471.86221"
       r="20" />
    <g
       ns0:preamble=""
       ns0:text="$3$"
       word-spacing="normal"
       letter-spacing="normal"
       font-size-adjust="none"
       font-stretch="normal"
       font-weight="normal"
       font-variant="normal"
       font-style="normal"
       stroke-miterlimit="10.433"
       xml:space="preserve"
       transform="matrix(5.8308942,0,0,-5.8308942,-1195.2456,4724.2213)"
       id="g4281"
       style="font-style:normal;font-variant:normal;font-weight:normal;font-stretch:normal;letter-spacing:normal;word-spacing:normal;text-anchor:start;fill:none;fill-opacity:1;fill-rule:evenodd;stroke:#000000;stroke-linecap:butt;stroke-linejoin:miter;stroke-miterlimit:10.43299961;stroke-dasharray:none;stroke-dashoffset:0;stroke-opacity:1"><path
         id="path4283"
         d="m 226.32,710.63 0.08,0.03 0.07,0.02 0.08,0.04 0.07,0.03 0.07,0.04 0.06,0.03 0.07,0.04 0.06,0.05 0.07,0.04 0.06,0.05 0.06,0.04 0.05,0.05 0.06,0.06 0.05,0.05 0.05,0.06 0.05,0.05 0.04,0.06 0.04,0.06 0.04,0.06 0.04,0.06 0.04,0.07 0.03,0.06 0.03,0.07 0.02,0.06 0.03,0.07 0.02,0.07 0.02,0.07 0.01,0.07 0.01,0.07 0.01,0.08 0,0.07 0.01,0.07 c 0,0.82 -0.88,1.38 -1.84,1.38 -1,0 -1.76,-0.6 -1.76,-1.36 0,-0.33 0.22,-0.51 0.51,-0.51 0.31,0 0.51,0.21 0.51,0.5 0,0.5 -0.47,0.5 -0.62,0.5 0.31,0.49 0.97,0.62 1.32,0.62 0.41,0 0.96,-0.22 0.96,-1.12 0,-0.12 -0.02,-0.69 -0.28,-1.13 -0.3,-0.48 -0.64,-0.51 -0.89,-0.52 -0.08,-0.01 -0.31,-0.03 -0.38,-0.03 -0.08,-0.01 -0.15,-0.02 -0.15,-0.12 0,-0.11 0.07,-0.11 0.24,-0.11 l 0.43,0 c 0.82,0 1.19,-0.68 1.19,-1.65 0,-1.36 -0.69,-1.65 -1.13,-1.65 -0.43,0 -1.17,0.17 -1.52,0.76 0.35,-0.05 0.66,0.17 0.66,0.55 0,0.36 -0.27,0.55 -0.56,0.55 -0.24,0 -0.56,-0.13 -0.56,-0.57 0,-0.91 0.93,-1.57 2.01,-1.57 1.22,0 2.13,0.91 2.13,1.93 0,0.81 -0.63,1.59 -1.67,1.8 z"
         style="fill:#000000;stroke-width:0" /></g>    <g
       style="font-style:normal;font-variant:normal;font-weight:normal;font-stretch:normal;letter-spacing:normal;word-spacing:normal;text-anchor:start;fill:none;fill-opacity:1;fill-rule:evenodd;stroke:#000000;stroke-linecap:butt;stroke-linejoin:miter;stroke-miterlimit:10.43299961;stroke-dasharray:none;stroke-dashoffset:0;stroke-opacity:1"
       id="content"
       transform="matrix(6.0240767,0,0,-6.0240767,-1180.9715,4862.1073)"
       xml:space="preserve"
       stroke-miterlimit="10.433"
       font-style="normal"
       font-variant="normal"
       font-weight="normal"
       font-stretch="normal"
       font-size-adjust="none"
       letter-spacing="normal"
       word-spacing="normal"
       ns0:text="$2$"
       ns0:preamble=""><path
         style="fill:#000000;stroke-width:0"
         d="m 224.7,707.89 1.05,1.03 c 1.56,1.37 2.16,1.91 2.16,2.91 0,1.13 -0.9,1.93 -2.12,1.93 -1.12,0 -1.86,-0.92 -1.86,-1.81 0,-0.55 0.5,-0.55 0.53,-0.55 0.17,0 0.52,0.12 0.52,0.52 0,0.26 -0.18,0.52 -0.53,0.52 -0.08,0 -0.1,0 -0.13,-0.01 0.23,0.65 0.77,1.02 1.34,1.02 0.91,0 1.34,-0.81 1.34,-1.62 0,-0.8 -0.5,-1.59 -1.05,-2.21 l -1.91,-2.13 c -0.11,-0.11 -0.11,-0.13 -0.11,-0.37 l 3.7,0 0.28,1.74 -0.25,0 c -0.05,-0.3 -0.12,-0.74 -0.22,-0.89 -0.07,-0.08 -0.73,-0.08 -0.95,-0.08 z"
         id="path4314" /></g>  </g>
</svg>
